<?xml version="1.0" encoding="utf-8"?>
<!-- Generator: Adobe Illustrator 25.0.1, SVG Export Plug-In . SVG Version: 6.00 Build 0)  -->
<svg version="1.1" id="Camada_1" xmlns="http://www.w3.org/2000/svg" xmlns:xlink="http://www.w3.org/1999/xlink" x="0px" y="0px"
	 viewBox="0 0 137 23" style="enable-background:new 0 0 137 23;" xml:space="preserve">
<style type="text/css">
	.st0{fill-rule:evenodd;clip-rule:evenodd;fill:#FFFFFF;}
	.st1{fill:#FFFFFF;}
</style>
<g>
	<path class="st0" d="M23.54,11.4c-1.08,1.76-7.13,1.37-8.69,0.85C14.86,9.95,22.57,10.49,23.54,11.4 M34.87,6.08
		c0.38,0.25,0.46,0.42,1.02,0.42c-0.19-2.6-7.51-4.63-9.55-4.9c-1.83-0.24-3.36-0.36-5.36-0.36C16.85,1.21,9.34,1.97,6.36,5.46
		c-2.39,2.79-0.33,6.87,2.4,8.53c4.73,2.88,13.15,2.62,18,0.28c1.66-0.8,0.82,1.75-0.16,2.63c-4.41,3.95-14.78,3.59-19.89,1.75
		c-1.91-0.69-2.73-0.82-4.44-2.26c-0.23-0.19-0.3-0.27-0.65-0.31c0.13,1.66,2.54,2.79,3.71,3.48c5.8,2.92,24.99,4.13,27.15-4.03
		c0.52-1.96-0.56-4.16-1.96-5.48c-1.07-0.99-3.96-1.93-5.39-2.22c-8.94-1.81-13.83,1.71-13.96,2.43C9.6,9.09,9.97,7.15,11.18,6.3
		C16.67,1.83,28.9,2.26,34.87,6.08z"/>
	<path class="st1" d="M45.81,9.4l1.46-0.14c0.09,0.46,0.26,0.79,0.53,1.01c0.27,0.22,0.63,0.32,1.09,0.32c0.48,0,0.84-0.1,1.09-0.29
		c0.24-0.19,0.37-0.41,0.37-0.67c0-0.17-0.05-0.3-0.15-0.42c-0.1-0.12-0.28-0.22-0.54-0.3c-0.17-0.06-0.57-0.16-1.2-0.3
		c-0.8-0.19-1.36-0.42-1.69-0.69c-0.46-0.38-0.68-0.85-0.68-1.4c0-0.35,0.11-0.69,0.32-1c0.21-0.31,0.52-0.54,0.93-0.71
		c0.4-0.16,0.89-0.24,1.46-0.24c0.93,0,1.63,0.19,2.1,0.58c0.47,0.39,0.72,0.9,0.74,1.55l-1.51,0.05c-0.06-0.36-0.2-0.62-0.41-0.77
		c-0.21-0.16-0.52-0.24-0.94-0.24c-0.43,0-0.77,0.08-1.02,0.25c-0.16,0.11-0.24,0.25-0.24,0.43c0,0.17,0.07,0.31,0.22,0.42
		C47.94,7,48.4,7.15,49.12,7.32c0.73,0.16,1.27,0.33,1.61,0.5c0.35,0.17,0.62,0.41,0.82,0.71c0.2,0.3,0.3,0.67,0.3,1.11
		c0,0.4-0.12,0.77-0.35,1.12c-0.24,0.35-0.57,0.61-1,0.78c-0.43,0.17-0.97,0.25-1.62,0.25c-0.94,0-1.66-0.2-2.17-0.61
		C46.21,10.77,45.91,10.18,45.81,9.4"/>
	<path class="st1" d="M54.64,5.87v1.98h0.82c0.59,0,0.98-0.04,1.18-0.11c0.2-0.07,0.35-0.19,0.47-0.34
		c0.11-0.16,0.17-0.34,0.17-0.54c0-0.25-0.08-0.46-0.24-0.63c-0.16-0.17-0.36-0.27-0.6-0.31c-0.18-0.03-0.54-0.05-1.08-0.05H54.64z
		 M53.13,11.66V4.7h2.41c0.91,0,1.51,0.03,1.78,0.1c0.43,0.11,0.78,0.33,1.07,0.68c0.29,0.35,0.43,0.8,0.43,1.36
		c0,0.43-0.08,0.79-0.25,1.08c-0.17,0.29-0.38,0.52-0.63,0.69c-0.25,0.17-0.51,0.28-0.78,0.33c-0.36,0.07-0.88,0.1-1.55,0.1h-0.98
		v2.62H53.13z"/>
	<rect x="60.01" y="4.7" class="st1" width="1.51" height="6.96"/>
	<polygon class="st1" points="62.94,11.66 62.94,4.7 64.4,4.7 67.46,9.36 67.46,4.7 68.85,4.7 68.85,11.66 67.35,11.66 64.33,7.08 
		64.33,11.66 	"/>
	<rect x="73.27" y="4.7" class="st1" width="1.51" height="6.96"/>
	<polygon class="st1" points="76.21,11.66 76.21,4.7 77.67,4.7 80.73,9.36 80.73,4.7 82.12,4.7 82.12,11.66 80.61,11.66 77.6,7.08 
		77.6,11.66 	"/>
	<polygon class="st1" points="83.71,11.66 83.71,4.7 85.17,4.7 88.23,9.36 88.23,4.7 89.62,4.7 89.62,11.66 88.11,11.66 85.1,7.08 
		85.1,11.66 	"/>
	<path class="st1" d="M92.44,8.17c0,0.79,0.2,1.39,0.59,1.8c0.39,0.41,0.88,0.61,1.48,0.61c0.6,0,1.09-0.2,1.48-0.61
		c0.38-0.41,0.58-1.01,0.58-1.82c0-0.8-0.19-1.4-0.56-1.79c-0.37-0.39-0.87-0.59-1.49-0.59c-0.62,0-1.12,0.2-1.5,0.6
		C92.63,6.77,92.44,7.37,92.44,8.17 M90.9,8.22c0-0.71,0.11-1.31,0.34-1.79c0.17-0.35,0.4-0.67,0.69-0.96
		c0.29-0.28,0.61-0.49,0.96-0.63c0.46-0.18,1-0.28,1.6-0.28c1.1,0,1.97,0.32,2.63,0.96c0.66,0.64,0.99,1.52,0.99,2.66
		c0,1.13-0.33,2.01-0.98,2.64c-0.65,0.64-1.53,0.95-2.62,0.95c-1.11,0-1.99-0.32-2.64-0.95C91.22,10.2,90.9,9.33,90.9,8.22z"/>
	<polygon class="st1" points="101.18,11.66 98.53,4.7 100.15,4.7 102.04,9.85 103.85,4.7 105.45,4.7 102.81,11.66 	"/>
	<path class="st1" d="M109.38,8.9l-1.03-2.58l-1,2.58H109.38z M112.14,11.66h-1.62l-0.64-1.58h-2.98l-0.62,1.58h-1.59l2.89-6.96
		h1.59L112.14,11.66z"/>
	<polygon class="st1" points="113.84,11.66 113.84,5.87 111.64,5.87 111.64,4.7 117.53,4.7 117.53,5.87 115.34,5.87 115.34,11.66 	
		"/>
	<rect x="118.46" y="4.7" class="st1" width="1.51" height="6.96"/>
	<path class="st1" d="M122.63,8.17c0,0.79,0.2,1.39,0.58,1.8c0.39,0.41,0.88,0.61,1.48,0.61c0.6,0,1.09-0.2,1.48-0.61
		c0.38-0.41,0.58-1.01,0.58-1.82c0-0.8-0.19-1.4-0.56-1.79c-0.37-0.39-0.87-0.59-1.49-0.59c-0.62,0-1.12,0.2-1.5,0.6
		C122.82,6.77,122.63,7.37,122.63,8.17 M121.08,8.22c0-0.71,0.11-1.31,0.34-1.79c0.17-0.35,0.4-0.67,0.69-0.96
		c0.29-0.28,0.61-0.49,0.96-0.63c0.46-0.18,1-0.28,1.6-0.28c1.1,0,1.97,0.32,2.63,0.96c0.66,0.64,0.99,1.52,0.99,2.66
		c0,1.13-0.33,2.01-0.98,2.64c-0.65,0.64-1.53,0.95-2.62,0.95c-1.11,0-1.99-0.32-2.64-0.95C121.41,10.2,121.08,9.33,121.08,8.22z"/>
	<polygon class="st1" points="129.47,11.66 129.47,4.7 130.93,4.7 133.99,9.36 133.99,4.7 135.38,4.7 135.38,11.66 133.87,11.66 
		130.86,7.08 130.86,11.66 	"/>
	<path class="st1" d="M57.57,17.78v-0.49h1.76v1.54c-0.27,0.22-0.55,0.38-0.84,0.49c-0.29,0.11-0.58,0.16-0.89,0.16
		c-0.41,0-0.78-0.09-1.11-0.26c-0.33-0.17-0.59-0.43-0.76-0.76c-0.17-0.33-0.26-0.7-0.26-1.11c0-0.41,0.08-0.78,0.25-1.14
		c0.17-0.35,0.41-0.61,0.73-0.78c0.32-0.17,0.68-0.26,1.1-0.26c0.3,0,0.57,0.05,0.82,0.15c0.24,0.1,0.43,0.23,0.57,0.41
		c0.14,0.17,0.24,0.4,0.32,0.68l-0.5,0.14c-0.06-0.21-0.14-0.38-0.23-0.5c-0.09-0.12-0.23-0.22-0.4-0.29
		c-0.17-0.07-0.36-0.11-0.57-0.11c-0.25,0-0.47,0.04-0.65,0.12c-0.18,0.08-0.33,0.18-0.44,0.3c-0.11,0.13-0.2,0.26-0.26,0.41
		c-0.11,0.26-0.16,0.54-0.16,0.84c0,0.37,0.06,0.68,0.19,0.93c0.13,0.25,0.31,0.44,0.56,0.56c0.24,0.12,0.5,0.18,0.78,0.18
		c0.24,0,0.47-0.05,0.7-0.14c0.23-0.09,0.4-0.19,0.52-0.3v-0.78H57.57z"/>
	<polygon class="st1" points="60.16,19.41 60.16,15.25 63.17,15.25 63.17,15.74 60.71,15.74 60.71,17.02 63.01,17.02 63.01,17.51 
		60.71,17.51 60.71,18.92 63.27,18.92 63.27,19.41 	"/>
	<path class="st1" d="M63.85,18.08l0.52-0.05c0.02,0.21,0.08,0.38,0.17,0.52c0.09,0.13,0.23,0.24,0.42,0.33
		c0.19,0.08,0.4,0.12,0.64,0.12c0.21,0,0.4-0.03,0.56-0.09c0.16-0.06,0.28-0.15,0.36-0.26c0.08-0.11,0.12-0.23,0.12-0.36
		c0-0.13-0.04-0.24-0.11-0.34c-0.08-0.1-0.2-0.18-0.38-0.25c-0.11-0.04-0.36-0.11-0.74-0.2c-0.38-0.09-0.65-0.18-0.8-0.26
		c-0.2-0.1-0.35-0.23-0.44-0.39c-0.1-0.15-0.15-0.33-0.15-0.52c0-0.21,0.06-0.41,0.18-0.59c0.12-0.18,0.29-0.32,0.52-0.42
		c0.23-0.09,0.48-0.14,0.76-0.14c0.31,0,0.58,0.05,0.82,0.15c0.24,0.1,0.42,0.25,0.54,0.44c0.13,0.19,0.19,0.41,0.2,0.66l-0.53,0.04
		c-0.03-0.26-0.12-0.46-0.29-0.6c-0.16-0.13-0.41-0.2-0.73-0.2c-0.33,0-0.58,0.06-0.73,0.18c-0.15,0.12-0.23,0.27-0.23,0.44
		c0,0.15,0.05,0.27,0.16,0.37c0.11,0.1,0.38,0.2,0.83,0.3c0.45,0.1,0.76,0.19,0.92,0.27c0.24,0.11,0.42,0.25,0.54,0.42
		c0.12,0.17,0.17,0.37,0.17,0.59c0,0.22-0.06,0.43-0.19,0.63c-0.13,0.2-0.31,0.35-0.55,0.46c-0.24,0.11-0.5,0.16-0.8,0.16
		c-0.38,0-0.69-0.06-0.95-0.16c-0.25-0.11-0.45-0.27-0.6-0.5C63.93,18.6,63.86,18.35,63.85,18.08"/>
	<polygon class="st1" points="68.97,19.41 68.97,15.74 67.59,15.74 67.59,15.25 70.89,15.25 70.89,15.74 69.52,15.74 69.52,19.41 	
		"/>
	<path class="st1" d="M71.96,15c0-0.19,0.05-0.35,0.16-0.47c0.11-0.12,0.25-0.17,0.41-0.17c0.12,0,0.28,0.05,0.48,0.15
		c0.11,0.06,0.2,0.08,0.27,0.08c0.06,0,0.11-0.02,0.14-0.05c0.03-0.03,0.05-0.1,0.07-0.19h0.37c-0.01,0.22-0.06,0.38-0.16,0.48
		c-0.1,0.11-0.23,0.16-0.39,0.16c-0.12,0-0.28-0.05-0.47-0.16c-0.13-0.07-0.22-0.1-0.28-0.1c-0.06,0-0.12,0.02-0.16,0.07
		c-0.04,0.04-0.06,0.11-0.06,0.2H71.96z M72.2,17.7h1.42l-0.43-1.15c-0.13-0.35-0.23-0.64-0.3-0.87c-0.06,0.27-0.13,0.54-0.23,0.8
		L72.2,17.7z M71,19.41l1.6-4.16h0.61l1.7,4.16h-0.63l-0.48-1.26h-1.75l-0.45,1.26H71z"/>
	<path class="st1" d="M75.74,17.4c0,0.5,0.13,0.9,0.4,1.18c0.27,0.29,0.61,0.43,1.01,0.43c0.42,0,0.76-0.15,1.02-0.44
		c0.27-0.29,0.4-0.7,0.4-1.24c0-0.34-0.06-0.63-0.17-0.89c-0.11-0.25-0.28-0.45-0.5-0.59c-0.22-0.14-0.47-0.21-0.74-0.21
		c-0.39,0-0.73,0.13-1.01,0.4C75.88,16.32,75.74,16.77,75.74,17.4 M75.17,17.39c0-0.69,0.19-1.23,0.56-1.62
		c0.37-0.39,0.85-0.59,1.44-0.59c0.39,0,0.73,0.09,1.04,0.28c0.31,0.18,0.54,0.44,0.71,0.77c0.16,0.33,0.24,0.7,0.24,1.12
		c0,0.42-0.09,0.8-0.26,1.13c-0.17,0.33-0.41,0.59-0.72,0.76c-0.31,0.17-0.65,0.26-1.01,0.26c-0.39,0-0.74-0.1-1.05-0.28
		c-0.31-0.19-0.54-0.45-0.7-0.77C75.25,18.1,75.17,17.75,75.17,17.39z"/>
	<path class="st1" d="M82.03,18.92h0.89c0.27,0,0.49-0.03,0.65-0.08c0.16-0.05,0.28-0.12,0.37-0.22c0.13-0.13,0.23-0.31,0.3-0.53
		c0.07-0.22,0.11-0.49,0.11-0.8c0-0.44-0.07-0.77-0.21-1.01c-0.14-0.23-0.32-0.39-0.52-0.47c-0.15-0.06-0.38-0.09-0.71-0.09h-0.87
		V18.92z M81.48,19.41v-4.16h1.43c0.32,0,0.57,0.02,0.74,0.06c0.24,0.06,0.44,0.16,0.61,0.3c0.22,0.19,0.38,0.42,0.49,0.71
		c0.11,0.29,0.16,0.62,0.16,0.99c0,0.32-0.04,0.6-0.11,0.84c-0.07,0.24-0.17,0.45-0.28,0.61c-0.12,0.16-0.24,0.29-0.38,0.38
		c-0.14,0.09-0.3,0.16-0.5,0.21c-0.2,0.05-0.42,0.07-0.67,0.07H81.48z"/>
	<path class="st1" d="M86.42,17.7h1.42l-0.43-1.15c-0.13-0.35-0.23-0.64-0.3-0.87c-0.06,0.27-0.13,0.54-0.23,0.8L86.42,17.7z
		 M85.22,19.41l1.6-4.16h0.61l1.7,4.16H88.5l-0.48-1.26h-1.75l-0.45,1.26H85.22z"/>
	<rect x="90.95" y="15.25" class="st1" width="0.55" height="4.16"/>
	<polygon class="st1" points="92.47,19.41 92.47,15.25 93.03,15.25 95.22,18.52 95.22,15.25 95.75,15.25 95.75,19.41 95.18,19.41 
		93,16.14 93,19.41 	"/>
	<path class="st1" d="M97.07,17.4c0,0.5,0.13,0.9,0.4,1.18c0.27,0.29,0.61,0.43,1.01,0.43c0.41,0,0.76-0.15,1.02-0.44
		c0.27-0.29,0.4-0.7,0.4-1.24c0-0.34-0.06-0.63-0.17-0.89c-0.11-0.25-0.28-0.45-0.5-0.59c-0.22-0.14-0.47-0.21-0.74-0.21
		c-0.39,0-0.73,0.13-1.01,0.4C97.21,16.32,97.07,16.77,97.07,17.4 M96.5,17.39c0-0.69,0.19-1.23,0.56-1.62
		c0.37-0.39,0.85-0.59,1.44-0.59c0.38,0,0.73,0.09,1.04,0.28c0.31,0.18,0.54,0.44,0.71,0.77c0.16,0.33,0.24,0.7,0.24,1.12
		c0,0.42-0.09,0.8-0.26,1.13c-0.17,0.33-0.41,0.59-0.72,0.76c-0.31,0.17-0.65,0.26-1.01,0.26c-0.39,0-0.74-0.1-1.05-0.28
		c-0.31-0.19-0.54-0.45-0.7-0.77C96.58,18.1,96.5,17.75,96.5,17.39z"/>
	<path class="st1" d="M102.38,19.41l-1.61-4.16h0.6l1.08,3.03c0.09,0.24,0.16,0.47,0.22,0.68c0.06-0.23,0.14-0.45,0.22-0.68
		l1.12-3.03h0.56l-1.62,4.16H102.38z"/>
	<path class="st1" d="M105.39,17.7h1.42l-0.43-1.15c-0.13-0.35-0.23-0.64-0.3-0.87c-0.06,0.27-0.13,0.54-0.23,0.8L105.39,17.7z
		 M104.19,19.41l1.6-4.16h0.61l1.7,4.16h-0.63l-0.48-1.26h-1.75l-0.45,1.26H104.19z"/>
	<path class="st1" d="M109.88,19.91l0.15-0.5h0.38l-0.09,0.3c0.16,0.02,0.28,0.07,0.37,0.15c0.08,0.08,0.12,0.17,0.12,0.27
		c0,0.14-0.07,0.27-0.21,0.38c-0.14,0.11-0.34,0.16-0.62,0.16c-0.16,0-0.29,0-0.41,0l0.03-0.36c0.12,0,0.21,0.01,0.27,0.01
		c0.18,0,0.31-0.02,0.38-0.07c0.06-0.04,0.08-0.08,0.08-0.14c0-0.03-0.01-0.06-0.03-0.09c-0.02-0.03-0.06-0.05-0.12-0.07
		C110.11,19.93,110.01,19.92,109.88,19.91 M111.49,17.95l0.55,0.14c-0.12,0.45-0.32,0.8-0.62,1.03c-0.3,0.24-0.67,0.36-1.1,0.36
		c-0.45,0-0.81-0.09-1.09-0.27c-0.28-0.18-0.49-0.45-0.64-0.79c-0.15-0.35-0.22-0.72-0.22-1.12c0-0.43,0.08-0.81,0.25-1.13
		c0.17-0.32,0.4-0.57,0.71-0.74c0.31-0.17,0.64-0.25,1.01-0.25c0.42,0,0.77,0.11,1.05,0.32c0.28,0.21,0.48,0.51,0.59,0.89
		l-0.54,0.13c-0.1-0.3-0.24-0.52-0.42-0.66c-0.18-0.14-0.41-0.21-0.69-0.21c-0.32,0-0.59,0.08-0.8,0.23
		c-0.21,0.15-0.37,0.36-0.45,0.62c-0.09,0.26-0.13,0.53-0.13,0.8c0,0.35,0.05,0.66,0.15,0.93c0.1,0.26,0.26,0.46,0.48,0.59
		c0.22,0.13,0.45,0.2,0.71,0.2c0.31,0,0.57-0.09,0.78-0.27C111.27,18.57,111.41,18.3,111.49,17.95z"/>
	<path class="st1" d="M113.22,15c0-0.19,0.05-0.35,0.16-0.47c0.11-0.12,0.25-0.17,0.41-0.17c0.12,0,0.28,0.05,0.48,0.15
		c0.11,0.06,0.2,0.08,0.27,0.08c0.06,0,0.11-0.02,0.14-0.05c0.03-0.03,0.05-0.1,0.07-0.19h0.37c-0.01,0.22-0.06,0.38-0.16,0.48
		c-0.1,0.11-0.23,0.16-0.39,0.16c-0.12,0-0.28-0.05-0.47-0.16c-0.13-0.07-0.22-0.1-0.28-0.1c-0.06,0-0.12,0.02-0.16,0.07
		c-0.04,0.04-0.06,0.11-0.06,0.2H113.22z M113.47,17.7h1.42l-0.43-1.15c-0.13-0.35-0.23-0.64-0.3-0.87
		c-0.06,0.27-0.13,0.54-0.23,0.8L113.47,17.7z M112.27,19.41l1.6-4.16h0.61l1.7,4.16h-0.63l-0.48-1.26h-1.75l-0.45,1.26H112.27z"/>
	<path class="st1" d="M117.01,17.4c0,0.5,0.13,0.9,0.4,1.18c0.27,0.29,0.61,0.43,1.01,0.43c0.41,0,0.76-0.15,1.02-0.44
		c0.27-0.29,0.4-0.7,0.4-1.24c0-0.34-0.06-0.63-0.17-0.89c-0.11-0.25-0.28-0.45-0.5-0.59c-0.22-0.14-0.47-0.21-0.74-0.21
		c-0.39,0-0.73,0.13-1.01,0.4C117.15,16.32,117.01,16.77,117.01,17.4 M116.44,17.39c0-0.69,0.19-1.23,0.56-1.62
		c0.37-0.39,0.85-0.59,1.44-0.59c0.38,0,0.73,0.09,1.04,0.28c0.31,0.18,0.54,0.44,0.71,0.77c0.16,0.33,0.24,0.7,0.24,1.12
		c0,0.42-0.09,0.8-0.26,1.13c-0.17,0.33-0.41,0.59-0.72,0.76c-0.31,0.17-0.65,0.26-1.01,0.26c-0.39,0-0.74-0.1-1.05-0.28
		c-0.31-0.19-0.54-0.45-0.7-0.77C116.51,18.1,116.44,17.75,116.44,17.39z"/>
	<path class="st1" d="M122.54,18.32l0.54-0.04c0.04,0.26,0.13,0.46,0.28,0.59c0.14,0.13,0.32,0.2,0.53,0.2
		c0.25,0,0.46-0.09,0.63-0.28c0.17-0.19,0.25-0.43,0.25-0.74c0-0.29-0.08-0.52-0.24-0.69c-0.16-0.17-0.38-0.25-0.64-0.25
		c-0.17,0-0.31,0.04-0.45,0.11c-0.13,0.08-0.23,0.17-0.31,0.29l-0.48-0.07l0.4-2.14h2.06v0.49h-1.66l-0.22,1.12
		c0.25-0.18,0.51-0.26,0.78-0.26c0.36,0,0.67,0.13,0.92,0.38c0.25,0.25,0.37,0.58,0.37,0.97c0,0.38-0.11,0.7-0.33,0.98
		c-0.27,0.34-0.63,0.51-1.09,0.51c-0.38,0-0.69-0.11-0.93-0.32C122.71,18.95,122.57,18.67,122.54,18.32"/>
	<rect x="126.06" y="18.83" class="st1" width="0.58" height="0.58"/>
	<path class="st1" d="M127.92,17.36c0,0.69,0.08,1.14,0.24,1.37c0.16,0.23,0.36,0.34,0.59,0.34c0.23,0,0.43-0.11,0.59-0.34
		c0.16-0.23,0.24-0.68,0.24-1.36c0-0.69-0.08-1.14-0.24-1.37c-0.16-0.23-0.36-0.34-0.6-0.34c-0.23,0-0.42,0.1-0.56,0.3
		C128,16.21,127.92,16.68,127.92,17.36 M127.39,17.36c0-0.49,0.05-0.89,0.15-1.19c0.1-0.3,0.25-0.53,0.45-0.7
		c0.2-0.16,0.45-0.24,0.75-0.24c0.22,0,0.42,0.04,0.59,0.13c0.17,0.09,0.31,0.22,0.42,0.39c0.11,0.17,0.19,0.38,0.26,0.62
		c0.06,0.24,0.09,0.57,0.09,0.98c0,0.49-0.05,0.88-0.15,1.18c-0.1,0.3-0.25,0.53-0.45,0.7c-0.2,0.16-0.45,0.24-0.76,0.24
		c-0.4,0-0.72-0.14-0.94-0.43C127.53,18.71,127.39,18.14,127.39,17.36z"/>
</g>
</svg>
